# xmcd
#
# Track frame offsets: 
#        182
#        13070
#        26540
#        42335
#        58482
#        69897
#        81975
#        94340
#        107197
#        121450
#        136175
#        149312
#        162667
#        181737
#        195105
#        207277
#        227027
#        239625
#        251405
#        263410
#
# Disc length: 3613 seconds
#
# Revision: 0
# Processed by: cddbd v1.5.1PL2 Copyright (c) Steve Scherf et al.
# Submitted via: ExactAudioCopy v0.95b3
#
DISCID=190e1b14
DTITLE=Various Artist - Boogie Woogie Story Vol. 2 (1923-1926)
DYEAR=1993
DGENRE=Boogie Woogie
TTITLE0=George Thomas - The Rocks
TTITLE1=Tampa Blues Jazz Band - The Fives
TTITLE2=Fletcher Henderson - Chimes Blues
TTITLE3=Clarence Williams - Sugar Blues
TTITLE4=Clarence Williams - The Weary Blues
TTITLE5=Fats Waller - Snake Hips
TTITLE6=Richard M. Jones - Jazzin' Babies Blues
TTITLE7=Lemuel Fowler - Satisfied Blues
TTITLE8=Jesse Crump - Golden West Blues
TTITLE9=Clarence Johnson - Gulf Coast Blues
TTITLE10=Clarence Williams - New Orleans Hop Scop Blues
TTITLE11=Q. Roscoe Snowden - Misery Blues
TTITLE12=Hersal Thomas - The Fives
TTITLE13=Jimmy Blythe - Chicago Stomps
TTITLE14=Jimmy Blythe - Armour Avenue Struggle
TTITLE15=Fats Waller - Jailhouse Blues
TTITLE16=Clarence Williams - My Own Blues
TTITLE17=Hersal Thomas - Suitcase Blues
TTITLE18=Jimmy Blythe - Jimmie Blues
TTITLE19=Cow Cow Davenport - 5th Street Blues
EXTD=
EXTT0=
EXTT1=
EXTT2=
EXTT3=
EXTT4=
EXTT5=
EXTT6=
EXTT7=
EXTT8=
EXTT9=
EXTT10=
EXTT11=
EXTT12=
EXTT13=
EXTT14=
EXTT15=
EXTT16=
EXTT17=
EXTT18=
EXTT19=
PLAYORDER=
